<?xml version="1.0" encoding="UTF-8" standalone="no"?>
<!DOCTYPE svg PUBLIC "-//W3C//DTD SVG 1.1//EN"
 "http://www.w3.org/Graphics/SVG/1.1/DTD/svg11.dtd">
<!-- Generated by graphviz version 2.47.0 (20210316.0004)
 -->
<!-- Title: dependencies Pages: 1 -->
<svg width="3034pt" height="284pt"
 viewBox="0.00 0.00 3034.00 284.00" xmlns="http://www.w3.org/2000/svg" xmlns:xlink="http://www.w3.org/1999/xlink">
<g id="graph0" class="graph" transform="scale(1 1) rotate(0) translate(4 280)">
<title>dependencies</title>
<polygon fill="white" stroke="transparent" points="-4,4 -4,-280 3030,-280 3030,4 -4,4"/>
<text text-anchor="start" x="1492.01" y="-42.4" font-family="Times-12" font-weight="bold" font-size="14.00">Legend</text>
<polygon fill="#ffffb3" stroke="transparent" points="1279,-10 1279,-30 1299,-30 1299,-10 1279,-10"/>
<text text-anchor="start" x="1302.63" y="-15.4" font-family="Times-12" font-size="14.00"> &#160;Declarations</text>
<polygon fill="#8dd3c7" stroke="transparent" points="1392,-10 1392,-30 1412,-30 1412,-10 1392,-10"/>
<text text-anchor="start" x="1415.73" y="-15.4" font-family="Times-12" font-size="14.00"> &#160;Module</text>
<polygon fill="#80b1d3" stroke="transparent" points="1478,-10 1478,-30 1498,-30 1498,-10 1478,-10"/>
<text text-anchor="start" x="1501.78" y="-15.4" font-family="Times-12" font-size="14.00"> &#160;Bootstrap</text>
<polygon fill="#fdb462" stroke="transparent" points="1575,-10 1575,-30 1595,-30 1595,-10 1575,-10"/>
<text text-anchor="start" x="1598.67" y="-15.4" font-family="Times-12" font-size="14.00"> &#160;Providers</text>
<polygon fill="#fb8072" stroke="transparent" points="1671,-10 1671,-30 1691,-30 1691,-10 1671,-10"/>
<text text-anchor="start" x="1694.73" y="-15.4" font-family="Times-12" font-size="14.00"> &#160;Exports</text>
<g id="clust1" class="cluster">
<title>cluster_AppModule</title>
<polygon fill="none" stroke="black" stroke-dasharray="1,5" points="8,-70 8,-268 3018,-268 3018,-70 8,-70"/>
</g>
<g id="clust2" class="cluster">
<title>cluster_AppModule_declarations</title>
<polygon fill="none" stroke="black" points="16,-78 16,-130 3010,-130 3010,-78 16,-78"/>
</g>
<g id="clust22" class="cluster">
<title>cluster_AppModule_bootstrap</title>
<polygon fill="none" stroke="black" points="1574,-208 1574,-260 1698,-260 1698,-208 1574,-208"/>
</g>
<!-- AppComponent -->
<g id="node1" class="node">
<title>AppComponent</title>
<polygon fill="#ffffb3" stroke="black" points="3001.94,-122 2896.06,-122 2896.06,-86 3001.94,-86 3001.94,-122"/>
<text text-anchor="middle" x="2949" y="-99.8" font-family="Times,serif" font-size="14.00">AppComponent</text>
</g>
<!-- AppModule -->
<g id="node18" class="node">
<title>AppModule</title>
<polygon fill="#8dd3c7" stroke="black" points="1677.66,-187 1674.66,-191 1653.66,-191 1650.66,-187 1594.34,-187 1594.34,-151 1677.66,-151 1677.66,-187"/>
<text text-anchor="middle" x="1636" y="-164.8" font-family="Times,serif" font-size="14.00">AppModule</text>
</g>
<!-- AppComponent&#45;&gt;AppModule -->
<g id="edge1" class="edge">
<title>AppComponent&#45;&gt;AppModule</title>
<path fill="none" stroke="black" d="M2949,-122.32C2949,-145.66 2949,-183 2949,-183 2949,-183 1687.83,-183 1687.83,-183"/>
<polygon fill="black" stroke="black" points="1687.83,-179.5 1677.83,-183 1687.83,-186.5 1687.83,-179.5"/>
</g>
<!-- AyudaPasswordComponent -->
<g id="node2" class="node">
<title>AyudaPasswordComponent</title>
<polygon fill="#ffffb3" stroke="black" points="2878.31,-122 2705.69,-122 2705.69,-86 2878.31,-86 2878.31,-122"/>
<text text-anchor="middle" x="2792" y="-99.8" font-family="Times,serif" font-size="14.00">AyudaPasswordComponent</text>
</g>
<!-- AyudaPasswordComponent&#45;&gt;AppModule -->
<g id="edge2" class="edge">
<title>AyudaPasswordComponent&#45;&gt;AppModule</title>
<path fill="none" stroke="black" d="M2792,-122.16C2792,-144.35 2792,-179 2792,-179 2792,-179 1687.83,-179 1687.83,-179"/>
<polygon fill="black" stroke="black" points="1687.83,-175.5 1677.83,-179 1687.83,-182.5 1687.83,-175.5"/>
</g>
<!-- Co2ChartComponent -->
<g id="node3" class="node">
<title>Co2ChartComponent</title>
<polygon fill="#ffffb3" stroke="black" points="2687.77,-122 2552.23,-122 2552.23,-86 2687.77,-86 2687.77,-122"/>
<text text-anchor="middle" x="2620" y="-99.8" font-family="Times,serif" font-size="14.00">Co2ChartComponent</text>
</g>
<!-- Co2ChartComponent&#45;&gt;AppModule -->
<g id="edge3" class="edge">
<title>Co2ChartComponent&#45;&gt;AppModule</title>
<path fill="none" stroke="black" d="M2620,-122.28C2620,-143.32 2620,-175 2620,-175 2620,-175 1687.97,-175 1687.97,-175"/>
<polygon fill="black" stroke="black" points="1687.97,-171.5 1677.97,-175 1687.97,-178.5 1687.97,-171.5"/>
</g>
<!-- DashboardsComponent -->
<g id="node4" class="node">
<title>DashboardsComponent</title>
<polygon fill="#ffffb3" stroke="black" points="2533.92,-122 2386.08,-122 2386.08,-86 2533.92,-86 2533.92,-122"/>
<text text-anchor="middle" x="2460" y="-99.8" font-family="Times,serif" font-size="14.00">DashboardsComponent</text>
</g>
<!-- DashboardsComponent&#45;&gt;AppModule -->
<g id="edge4" class="edge">
<title>DashboardsComponent&#45;&gt;AppModule</title>
<path fill="none" stroke="black" d="M2460,-122.31C2460,-142.15 2460,-171 2460,-171 2460,-171 1687.71,-171 1687.71,-171"/>
<polygon fill="black" stroke="black" points="1687.71,-167.5 1677.71,-171 1687.71,-174.5 1687.71,-167.5"/>
</g>
<!-- FooterComponent -->
<g id="node5" class="node">
<title>FooterComponent</title>
<polygon fill="#ffffb3" stroke="black" points="2367.88,-122 2250.12,-122 2250.12,-86 2367.88,-86 2367.88,-122"/>
<text text-anchor="middle" x="2309" y="-99.8" font-family="Times,serif" font-size="14.00">FooterComponent</text>
</g>
<!-- FooterComponent&#45;&gt;AppModule -->
<g id="edge5" class="edge">
<title>FooterComponent&#45;&gt;AppModule</title>
<path fill="none" stroke="black" d="M2309,-122.22C2309,-140.83 2309,-167 2309,-167 2309,-167 1687.84,-167 1687.84,-167"/>
<polygon fill="black" stroke="black" points="1687.84,-163.5 1677.84,-167 1687.84,-170.5 1687.84,-163.5"/>
</g>
<!-- HistorialConsumoComponent -->
<g id="node6" class="node">
<title>HistorialConsumoComponent</title>
<polygon fill="#ffffb3" stroke="black" points="2231.99,-122 2048.01,-122 2048.01,-86 2231.99,-86 2231.99,-122"/>
<text text-anchor="middle" x="2140" y="-99.8" font-family="Times,serif" font-size="14.00">HistorialConsumoComponent</text>
</g>
<!-- HistorialConsumoComponent&#45;&gt;AppModule -->
<g id="edge6" class="edge">
<title>HistorialConsumoComponent&#45;&gt;AppModule</title>
<path fill="none" stroke="black" d="M2140,-122.02C2140,-139.37 2140,-163 2140,-163 2140,-163 1687.67,-163 1687.67,-163"/>
<polygon fill="black" stroke="black" points="1687.67,-159.5 1677.67,-163 1687.67,-166.5 1687.67,-159.5"/>
</g>
<!-- ListaObjetivosComponent -->
<g id="node7" class="node">
<title>ListaObjetivosComponent</title>
<polygon fill="#ffffb3" stroke="black" points="2029.76,-122 1866.24,-122 1866.24,-86 2029.76,-86 2029.76,-122"/>
<text text-anchor="middle" x="1948" y="-99.8" font-family="Times,serif" font-size="14.00">ListaObjetivosComponent</text>
</g>
<!-- ListaObjetivosComponent&#45;&gt;AppModule -->
<g id="edge7" class="edge">
<title>ListaObjetivosComponent&#45;&gt;AppModule</title>
<path fill="none" stroke="black" d="M1948,-122.01C1948,-138.05 1948,-159 1948,-159 1948,-159 1687.75,-159 1687.75,-159"/>
<polygon fill="black" stroke="black" points="1687.75,-155.5 1677.75,-159 1687.75,-162.5 1687.75,-155.5"/>
</g>
<!-- LoginComponent -->
<g id="node8" class="node">
<title>LoginComponent</title>
<polygon fill="#ffffb3" stroke="black" points="1848.28,-122 1733.72,-122 1733.72,-86 1848.28,-86 1848.28,-122"/>
<text text-anchor="middle" x="1791" y="-99.8" font-family="Times,serif" font-size="14.00">LoginComponent</text>
</g>
<!-- LoginComponent&#45;&gt;AppModule -->
<g id="edge8" class="edge">
<title>LoginComponent&#45;&gt;AppModule</title>
<path fill="none" stroke="black" d="M1791,-122.12C1791,-136.78 1791,-155 1791,-155 1791,-155 1687.95,-155 1687.95,-155"/>
<polygon fill="black" stroke="black" points="1687.95,-151.5 1677.95,-155 1687.95,-158.5 1687.95,-151.5"/>
</g>
<!-- MenuUsuarioComponent -->
<g id="node9" class="node">
<title>MenuUsuarioComponent</title>
<polygon fill="#ffffb3" stroke="black" points="1715.31,-122 1556.69,-122 1556.69,-86 1715.31,-86 1715.31,-122"/>
<text text-anchor="middle" x="1636" y="-99.8" font-family="Times,serif" font-size="14.00">MenuUsuarioComponent</text>
</g>
<!-- MenuUsuarioComponent&#45;&gt;AppModule -->
<g id="edge9" class="edge">
<title>MenuUsuarioComponent&#45;&gt;AppModule</title>
<path fill="none" stroke="black" d="M1636,-122.11C1636,-122.11 1636,-140.99 1636,-140.99"/>
<polygon fill="black" stroke="black" points="1632.5,-140.99 1636,-150.99 1639.5,-140.99 1632.5,-140.99"/>
</g>
<!-- ModificarConsumoComponent -->
<g id="node10" class="node">
<title>ModificarConsumoComponent</title>
<polygon fill="#ffffb3" stroke="black" points="1538.48,-122 1347.52,-122 1347.52,-86 1538.48,-86 1538.48,-122"/>
<text text-anchor="middle" x="1443" y="-99.8" font-family="Times,serif" font-size="14.00">ModificarConsumoComponent</text>
</g>
<!-- ModificarConsumoComponent&#45;&gt;AppModule -->
<g id="edge10" class="edge">
<title>ModificarConsumoComponent&#45;&gt;AppModule</title>
<path fill="none" stroke="black" d="M1443,-122.12C1443,-136.78 1443,-155 1443,-155 1443,-155 1584.12,-155 1584.12,-155"/>
<polygon fill="black" stroke="black" points="1584.12,-158.5 1594.12,-155 1584.12,-151.5 1584.12,-158.5"/>
</g>
<!-- NavbarComponent -->
<g id="node11" class="node">
<title>NavbarComponent</title>
<polygon fill="#ffffb3" stroke="black" points="1329.03,-122 1206.97,-122 1206.97,-86 1329.03,-86 1329.03,-122"/>
<text text-anchor="middle" x="1268" y="-99.8" font-family="Times,serif" font-size="14.00">NavbarComponent</text>
</g>
<!-- NavbarComponent&#45;&gt;AppModule -->
<g id="edge11" class="edge">
<title>NavbarComponent&#45;&gt;AppModule</title>
<path fill="none" stroke="black" d="M1268,-122.01C1268,-138.05 1268,-159 1268,-159 1268,-159 1584.14,-159 1584.14,-159"/>
<polygon fill="black" stroke="black" points="1584.14,-162.5 1594.14,-159 1584.14,-155.5 1584.14,-162.5"/>
</g>
<!-- PaginaPrincipalComponent -->
<g id="node12" class="node">
<title>PaginaPrincipalComponent</title>
<polygon fill="#ffffb3" stroke="black" points="1188.98,-122 1019.02,-122 1019.02,-86 1188.98,-86 1188.98,-122"/>
<text text-anchor="middle" x="1104" y="-99.8" font-family="Times,serif" font-size="14.00">PaginaPrincipalComponent</text>
</g>
<!-- PaginaPrincipalComponent&#45;&gt;AppModule -->
<g id="edge12" class="edge">
<title>PaginaPrincipalComponent&#45;&gt;AppModule</title>
<path fill="none" stroke="black" d="M1104,-122.02C1104,-139.37 1104,-163 1104,-163 1104,-163 1584.25,-163 1584.25,-163"/>
<polygon fill="black" stroke="black" points="1584.25,-166.5 1594.25,-163 1584.25,-159.5 1584.25,-166.5"/>
</g>
<!-- RegistrarConsumoComponent -->
<g id="node13" class="node">
<title>RegistrarConsumoComponent</title>
<polygon fill="#ffffb3" stroke="black" points="1001.32,-122 814.68,-122 814.68,-86 1001.32,-86 1001.32,-122"/>
<text text-anchor="middle" x="908" y="-99.8" font-family="Times,serif" font-size="14.00">RegistrarConsumoComponent</text>
</g>
<!-- RegistrarConsumoComponent&#45;&gt;AppModule -->
<g id="edge13" class="edge">
<title>RegistrarConsumoComponent&#45;&gt;AppModule</title>
<path fill="none" stroke="black" d="M908,-122.22C908,-140.83 908,-167 908,-167 908,-167 1584.24,-167 1584.24,-167"/>
<polygon fill="black" stroke="black" points="1584.24,-170.5 1594.24,-167 1584.24,-163.5 1584.24,-170.5"/>
</g>
<!-- RegistrarObjetivoComponent -->
<g id="node14" class="node">
<title>RegistrarObjetivoComponent</title>
<polygon fill="#ffffb3" stroke="black" points="796.64,-122 615.36,-122 615.36,-86 796.64,-86 796.64,-122"/>
<text text-anchor="middle" x="706" y="-99.8" font-family="Times,serif" font-size="14.00">RegistrarObjetivoComponent</text>
</g>
<!-- RegistrarObjetivoComponent&#45;&gt;AppModule -->
<g id="edge14" class="edge">
<title>RegistrarObjetivoComponent&#45;&gt;AppModule</title>
<path fill="none" stroke="black" d="M706,-122.31C706,-142.15 706,-171 706,-171 706,-171 1584.23,-171 1584.23,-171"/>
<polygon fill="black" stroke="black" points="1584.23,-174.5 1594.23,-171 1584.23,-167.5 1584.23,-174.5"/>
</g>
<!-- RegistrarUsuarioComponent -->
<g id="node15" class="node">
<title>RegistrarUsuarioComponent</title>
<polygon fill="#ffffb3" stroke="black" points="597.46,-122 420.54,-122 420.54,-86 597.46,-86 597.46,-122"/>
<text text-anchor="middle" x="509" y="-99.8" font-family="Times,serif" font-size="14.00">RegistrarUsuarioComponent</text>
</g>
<!-- RegistrarUsuarioComponent&#45;&gt;AppModule -->
<g id="edge15" class="edge">
<title>RegistrarUsuarioComponent&#45;&gt;AppModule</title>
<path fill="none" stroke="black" d="M509,-122.28C509,-143.32 509,-175 509,-175 509,-175 1584.22,-175 1584.22,-175"/>
<polygon fill="black" stroke="black" points="1584.22,-178.5 1594.22,-175 1584.22,-171.5 1584.22,-178.5"/>
</g>
<!-- ReiniciarPasswordComponent -->
<g id="node16" class="node">
<title>ReiniciarPasswordComponent</title>
<polygon fill="#ffffb3" stroke="black" points="402.3,-122 215.7,-122 215.7,-86 402.3,-86 402.3,-122"/>
<text text-anchor="middle" x="309" y="-99.8" font-family="Times,serif" font-size="14.00">ReiniciarPasswordComponent</text>
</g>
<!-- ReiniciarPasswordComponent&#45;&gt;AppModule -->
<g id="edge16" class="edge">
<title>ReiniciarPasswordComponent&#45;&gt;AppModule</title>
<path fill="none" stroke="black" d="M309,-122.16C309,-144.35 309,-179 309,-179 309,-179 1584.09,-179 1584.09,-179"/>
<polygon fill="black" stroke="black" points="1584.09,-182.5 1594.09,-179 1584.09,-175.5 1584.09,-182.5"/>
</g>
<!-- VerificarCodigoComponent -->
<g id="node17" class="node">
<title>VerificarCodigoComponent</title>
<polygon fill="#ffffb3" stroke="black" points="197.57,-122 24.43,-122 24.43,-86 197.57,-86 197.57,-122"/>
<text text-anchor="middle" x="111" y="-99.8" font-family="Times,serif" font-size="14.00">VerificarCodigoComponent</text>
</g>
<!-- VerificarCodigoComponent&#45;&gt;AppModule -->
<g id="edge17" class="edge">
<title>VerificarCodigoComponent&#45;&gt;AppModule</title>
<path fill="none" stroke="black" d="M111,-122.32C111,-145.66 111,-183 111,-183 111,-183 1584.02,-183 1584.02,-183"/>
<polygon fill="black" stroke="black" points="1584.02,-186.5 1594.02,-183 1584.02,-179.5 1584.02,-186.5"/>
</g>
<!-- AppComponent  -->
<g id="node19" class="node">
<title>AppComponent </title>
<polygon fill="#80b1d3" stroke="black" points="1690.44,-252 1581.56,-252 1581.56,-216 1690.44,-216 1690.44,-252"/>
<text text-anchor="middle" x="1636" y="-229.8" font-family="Times,serif" font-size="14.00">AppComponent </text>
</g>
<!-- AppModule&#45;&gt;AppComponent  -->
<g id="edge18" class="edge">
<title>AppModule&#45;&gt;AppComponent </title>
<path fill="none" stroke="black" stroke-dasharray="1,5" d="M1636,-187.11C1636,-187.11 1636,-205.99 1636,-205.99"/>
<polygon fill="black" stroke="black" points="1632.5,-205.99 1636,-215.99 1639.5,-205.99 1632.5,-205.99"/>
</g>
</g>
</svg>
